<svg width="100" height="16" viewBox="0 0 100 16" fill="none" xmlns="http://www.w3.org/2000/svg">
<path d="M7.99992 11.5133L12.1199 14L11.0266 9.31333L14.6666 6.16L9.87325 5.74667L7.99992 1.33333L6.12659 5.74667L1.33325 6.16L4.96659 9.31333L3.87992 14L7.99992 11.5133Z" fill="#F68634"/>
<path d="M29.0002 11.5133L33.1202 14L32.0268 9.31333L35.6668 6.16L30.8735 5.74667L29.0002 1.33333L27.1268 5.74667L22.3335 6.16L25.9668 9.31333L24.8802 14L29.0002 11.5133Z" fill="#F68634"/>
<path d="M50.0002 11.5133L54.1202 14L53.0268 9.31333L56.6668 6.16L51.8735 5.74667L50.0002 1.33333L48.1268 5.74667L43.3335 6.16L46.9668 9.31333L45.8802 14L50.0002 11.5133Z" fill="#F68634"/>
<path d="M71.0002 11.5133L75.1202 14L74.0268 9.31333L77.6668 6.16L72.8735 5.74667L71.0002 1.33333L69.1268 5.74667L64.3335 6.16L67.9668 9.31333L66.8802 14L71.0002 11.5133Z" fill="#F68634"/>
<path d="M92.0002 10.26L89.4935 11.7733L90.1535 8.92L87.9402 7L90.8602 6.75333L92.0002 4.06L93.1402 6.75333L96.0602 7L93.8468 8.92L94.5068 11.7733M98.6668 6.16L93.8735 5.75333L92.0002 1.33333L90.1268 5.75333L85.3335 6.16L88.9668 9.31333L87.8802 14L92.0002 11.5133L96.1202 14L95.0268 9.31333L98.6668 6.16Z" fill="#F68634"/>
</svg>
