<svg width="205" height="31" viewBox="0 0 205 31" fill="none" xmlns="http://www.w3.org/2000/svg">
<path d="M7.27344 12.332H8.83594C10.776 12.332 12.0977 12.1237 12.8008 11.707C13.5169 11.2643 13.875 10.5286 13.875 9.5C13.875 8.41927 13.543 7.65755 12.8789 7.21484C12.1497 6.75911 10.8411 6.53125 8.95312 6.53125H7.27344V12.332ZM0.046875 29.5V0.90625H7.87891C11.0299 0.90625 13.2826 1.01042 14.6367 1.21875C15.8997 1.41406 17.0065 1.77214 17.957 2.29297C18.9987 2.90495 19.7995 3.67969 20.3594 4.61719C20.9193 5.60677 21.1992 6.7526 21.1992 8.05469C21.1992 9.70833 20.7826 11.0104 19.9492 11.9609C19.1289 12.8984 17.8138 13.6146 16.0039 14.1094C17.9831 14.2656 19.5716 14.9688 20.7695 16.2188C21.9154 17.4948 22.4883 19.2005 22.4883 21.3359C22.4883 22.8464 22.1628 24.181 21.5117 25.3398C20.8607 26.5378 19.9427 27.4427 18.7578 28.0547C17.8464 28.5365 16.6484 28.9141 15.1641 29.1875C13.6276 29.3958 11.2773 29.5 8.11328 29.5H0.046875ZM7.27344 23.6602H10.0078C11.8568 23.6602 13.1589 23.4193 13.9141 22.9375C14.6953 22.4948 15.0859 21.7331 15.0859 20.6523C15.0859 19.4805 14.7344 18.6406 14.0312 18.1328C13.3281 17.6641 12.026 17.4297 10.125 17.4297H7.27344V23.6602ZM25.2451 29.5V9.77344H31.8076V14.4219C32.4977 12.7161 33.4157 11.4466 34.5615 10.6133C35.7464 9.76693 37.1722 9.34375 38.8388 9.34375C39.2164 9.34375 39.4964 9.35677 39.6787 9.38281C39.8219 9.39583 39.9521 9.40885 40.0693 9.42188C40.1865 9.42188 40.3362 9.4349 40.5185 9.46094L39.8545 15.7891C39.3727 15.6328 38.956 15.5221 38.6045 15.457C38.0836 15.4049 37.6995 15.3789 37.4521 15.3789C35.7594 15.3789 34.4508 15.8997 33.5263 16.9414C32.6149 17.9701 32.1592 19.4349 32.1592 21.3359V29.5H25.2451ZM56.6347 19.6172C56.6347 18.0547 56.2246 16.8438 55.4043 15.9844C54.5709 15.0729 53.4511 14.6172 52.0449 14.6172C50.6386 14.6172 49.5319 15.0599 48.7246 15.9453C47.8912 16.8568 47.4746 18.0807 47.4746 19.6172C47.4746 21.1667 47.8912 22.3841 48.7246 23.2695C49.5188 24.1419 50.6256 24.5781 52.0449 24.5781C53.4511 24.5781 54.5644 24.1419 55.3847 23.2695C56.2181 22.3971 56.6347 21.1797 56.6347 19.6172ZM62.748 9.77344V29.5H56.3613V26.2969C55.4368 27.6641 54.4016 28.6667 53.2558 29.3047C52.123 29.9427 50.7949 30.2617 49.2714 30.2617C46.6282 30.2617 44.5253 29.2982 42.9628 27.3711C42.1946 26.4206 41.6087 25.3008 41.205 24.0117C40.8014 22.7227 40.5996 21.2708 40.5996 19.6562C40.5996 16.4271 41.4264 13.8685 43.08 11.9805C44.7337 10.0924 46.9472 9.14844 49.7207 9.14844C51.205 9.14844 52.4811 9.46745 53.5488 10.1055C54.6295 10.7174 55.554 11.6875 56.3222 13.0156V9.77344H62.748ZM72.4579 29.5L63.5908 9.77344H71.0126L74.3915 18.5039C74.4176 18.556 74.4566 18.6602 74.5087 18.8164C74.8603 19.7799 75.1272 20.6979 75.3095 21.5703C75.4397 20.8672 75.6936 20.0143 76.0712 19.0117C76.1233 18.9076 76.1884 18.7383 76.2665 18.5039L79.6259 9.77344H86.872L77.9072 29.5H72.4579ZM101.172 17.0977C101.055 16.0039 100.631 15.112 99.9023 14.4219C99.1731 13.7318 98.2812 13.3867 97.2265 13.3867C96.1197 13.3867 95.2213 13.6927 94.5312 14.3047C93.815 14.9948 93.3658 15.9258 93.1835 17.0977H101.172ZM108.027 21.0234H93.0273C93.0663 22.5599 93.4504 23.7318 94.1796 24.5391C94.9348 25.3724 96.0286 25.7891 97.4608 25.7891C98.5025 25.7891 99.3944 25.5872 100.137 25.1836C100.892 24.7539 101.439 24.168 101.777 23.4258L107.012 25.5352C106.4 27.0326 105.293 28.1914 103.691 29.0117C102.103 29.8451 100.156 30.2617 97.8515 30.2617C94.414 30.2617 91.6536 29.2982 89.5702 27.3711C87.4999 25.4961 86.4648 22.9896 86.4648 19.8516C86.4648 16.7917 87.4999 14.2331 89.5702 12.1758C91.6405 10.1576 94.2707 9.14844 97.4608 9.14844C100.716 9.14844 103.288 10.1706 105.176 12.2148C106.139 13.2695 106.855 14.5 107.324 15.9062C107.793 17.2995 108.027 18.8945 108.027 20.6914V21.0234ZM118.323 29.5H111.018V0.90625H119.163C122.327 0.90625 124.573 1.0625 125.901 1.375C127.203 1.71354 128.291 2.2474 129.163 2.97656C130.205 3.84896 131.005 4.92969 131.565 6.21875C132.125 7.53385 132.405 8.9987 132.405 10.6133C132.405 12.332 132.125 13.8294 131.565 15.1055C131.071 16.3945 130.27 17.4622 129.163 18.3086C128.369 18.9336 127.412 19.3828 126.292 19.6562C125.289 19.9297 123.544 20.0664 121.058 20.0664H119.729H118.323V29.5ZM118.323 13.7773H119.808C121.656 13.7773 122.965 13.5104 123.733 12.9766C124.475 12.4818 124.847 11.6159 124.847 10.3789C124.847 9.19401 124.482 8.34766 123.753 7.83984C123.037 7.31901 121.748 7.05859 119.886 7.05859H118.323V13.7773ZM148.385 19.6953C148.385 18.224 148.014 17.0651 147.271 16.2188C146.503 15.3724 145.501 14.9492 144.264 14.9492C142.987 14.9492 141.985 15.3724 141.256 16.2188C140.514 17.0391 140.142 18.1979 140.142 19.6953C140.142 21.1536 140.501 22.2995 141.217 23.1328C141.998 23.9922 143.014 24.4219 144.264 24.4219C145.514 24.4219 146.529 23.9922 147.31 23.1328C148.027 22.2734 148.385 21.1276 148.385 19.6953ZM155.299 19.6953C155.299 21.1406 155.019 22.4883 154.459 23.7383C153.873 25.0664 153.072 26.2122 152.057 27.1758C150.911 28.2435 149.726 29.0182 148.502 29.5C147.226 30.0078 145.813 30.2617 144.264 30.2617C142.701 30.2617 141.288 30.0078 140.025 29.5C138.736 28.9922 137.545 28.224 136.451 27.1953C135.37 26.1536 134.589 25.0013 134.107 23.7383C133.547 22.5273 133.267 21.1797 133.267 19.6953C133.267 18.25 133.547 16.8893 134.107 15.6133C134.628 14.3242 135.416 13.1784 136.471 12.1758C137.499 11.1862 138.684 10.4245 140.025 9.89062C141.301 9.39583 142.714 9.14844 144.264 9.14844C145.8 9.14844 147.213 9.39583 148.502 9.89062C149.843 10.4245 151.028 11.1862 152.057 12.1758C153.137 13.1523 153.938 14.2982 154.459 15.6133C155.019 16.8893 155.299 18.25 155.299 19.6953ZM157.645 29.5V9.77344H164.598V29.5H157.645ZM158.524 4.69531H158.563C158.563 3.96615 158.817 3.36719 159.325 2.89844C159.833 2.39062 160.445 2.13672 161.161 2.13672C161.916 2.13672 162.535 2.3776 163.016 2.85938C163.511 3.34115 163.759 3.95312 163.759 4.69531C163.759 5.45052 163.505 6.07552 162.997 6.57031C162.502 7.07812 161.89 7.33203 161.161 7.33203C160.419 7.33203 159.794 7.0651 159.286 6.53125C158.778 6.03646 158.524 5.42448 158.524 4.69531ZM168.801 29.5V9.77344H175.168V13.7773C176.066 12.2148 177.134 11.043 178.371 10.2617C179.569 9.51953 181.021 9.14844 182.726 9.14844C184.015 9.14844 185.161 9.34375 186.164 9.73438C187.153 10.1771 187.954 10.776 188.566 11.5312C189.126 12.2865 189.497 13.0872 189.68 13.9336C189.901 15.0143 190.012 16.4401 190.012 18.2109V29.5H183.039V18.9336C183.039 17.332 182.785 16.1862 182.277 15.4961C181.769 14.7799 180.943 14.4219 179.797 14.4219C178.364 14.4219 177.31 14.9557 176.633 16.0234C175.969 17.0911 175.637 18.8229 175.637 21.2188V29.5H168.801ZM194.546 29.5L194.507 14.6953H191.557V9.77344H194.507V3.89453H201.401V9.77344H204.311V14.6953H201.401V29.5H194.546Z" fill="#012269"/>
</svg>
