<svg width="301" height="49" viewBox="0 0 301 49" fill="none" xmlns="http://www.w3.org/2000/svg">
<g filter="url(#filter0_dd_34_744)">
<rect x="10.1173" y="5" width="46.6143" height="30.0304" rx="5.37857" fill="white"/>
<rect x="10.0053" y="4.88795" width="46.8384" height="30.2545" rx="5.49062" stroke="#D6DCE5" stroke-width="0.224107"/>
<path d="M33.1395 15.121L30.9652 25.2845H28.3361L30.5107 15.121H33.1395ZM44.2011 21.6836L45.5853 17.8669L46.3818 21.6836H44.2011ZM47.1346 25.2845H49.5665L47.4443 15.121H45.1996C44.6952 15.121 44.2697 15.4144 44.0802 15.8667L40.1357 25.2845H42.8967L43.4449 23.7668H46.818L47.1346 25.2845ZM40.2728 21.9661C40.284 19.2836 36.5631 19.1359 36.5889 17.9376C36.5966 17.5725 36.9443 17.1852 37.7038 17.0858C38.0811 17.0366 39.1186 16.999 40.2966 17.541L40.7579 15.3857C40.1251 15.1561 39.3109 14.9351 38.2983 14.9351C35.6997 14.9351 33.8706 16.3167 33.8552 18.295C33.8388 19.758 35.1609 20.5745 36.1572 21.0609C37.1814 21.5591 37.5256 21.8782 37.5211 22.3238C37.5143 23.0061 36.704 23.3065 35.9481 23.3184C34.626 23.3393 33.8587 22.9617 33.2472 22.6767L32.7708 24.9037C33.3849 25.1858 34.5188 25.4309 35.6952 25.4435C38.4569 25.4435 40.2638 24.0789 40.2728 21.9661ZM29.3825 15.121L25.1228 25.2845H22.3432L20.2471 17.1733C20.1197 16.6738 20.0091 16.491 19.6221 16.2803C18.9906 15.9377 17.9468 15.6157 17.0284 15.4163L17.0911 15.121H21.5647C22.1347 15.121 22.6478 15.5006 22.7771 16.1571L23.8844 22.0388L26.6203 15.121H29.3825Z" fill="#1434CB"/>
</g>
<g filter="url(#filter1_dd_34_744)">
<rect x="68.7316" y="5" width="46.6143" height="30.0304" rx="5.37857" fill="white"/>
<rect x="68.6195" y="4.88795" width="46.8384" height="30.2545" rx="5.49062" stroke="#D6DCE5" stroke-width="0.224107"/>
<path d="M95.3872 13.8484H88.5239V26.1819H95.3872V13.8484Z" fill="#FF5F00"/>
<path d="M88.9597 20.0151C88.9586 18.8273 89.2278 17.6548 89.7468 16.5864C90.2659 15.518 91.0212 14.5817 91.9556 13.8484C90.7985 12.9389 89.4088 12.3732 87.9454 12.2162C86.4821 12.0591 85.004 12.3169 83.6802 12.9602C82.3565 13.6034 81.2404 14.6061 80.4595 15.8537C79.6787 17.1013 79.2646 18.5434 79.2646 20.0151C79.2646 21.4869 79.6787 22.929 80.4595 24.1766C81.2404 25.4241 82.3565 26.4269 83.6802 27.0701C85.004 27.7133 86.4821 27.9712 87.9454 27.8141C89.4088 27.657 90.7985 27.0914 91.9556 26.1819C91.0212 25.4485 90.2659 24.5122 89.7469 23.4438C89.2278 22.3754 88.9587 21.2029 88.9597 20.0151Z" fill="#EB001B"/>
<path d="M104.646 20.0151C104.646 21.4869 104.232 22.929 103.451 24.1765C102.671 25.4241 101.555 26.4268 100.231 27.0701C98.907 27.7133 97.429 27.9712 95.9657 27.8141C94.5023 27.657 93.1127 27.0914 91.9556 26.1819C92.8891 25.4478 93.6439 24.5113 94.1628 23.4431C94.6818 22.3749 94.9514 21.2028 94.9514 20.0151C94.9514 18.8275 94.6818 17.6554 94.1628 16.5872C93.6439 15.5189 92.8891 14.5825 91.9556 13.8484C93.1127 12.9389 94.5023 12.3732 95.9657 12.2162C97.429 12.0591 98.907 12.3169 100.231 12.9602C101.555 13.6034 102.671 14.6062 103.451 15.8537C104.232 17.1013 104.646 18.5434 104.646 20.0151Z" fill="#F79E1B"/>
<path d="M103.898 24.8756V24.6231H104V24.5716H103.74V24.6231H103.842V24.8756H103.898ZM104.401 24.8756V24.5711H104.322L104.23 24.7805L104.139 24.5711H104.059V24.8756H104.115V24.6459L104.201 24.8439H104.259L104.345 24.6454V24.8756H104.401Z" fill="#F79E1B"/>
</g>
<g filter="url(#filter2_dd_34_744)">
<rect x="127.346" y="5" width="46.6143" height="30.0304" rx="5.37857" fill="white"/>
<rect x="127.234" y="4.88795" width="46.8384" height="30.2545" rx="5.49062" stroke="#D6DCE5" stroke-width="0.224107"/>
<path fill-rule="evenodd" clip-rule="evenodd" d="M137.543 15.646H134.856C134.672 15.646 134.515 15.7796 134.487 15.9611L133.4 22.8518C133.378 22.9879 133.483 23.1104 133.621 23.1104H134.904C135.088 23.1104 135.245 22.9768 135.273 22.7949L135.566 20.9364C135.595 20.7544 135.751 20.6209 135.935 20.6209H136.786C138.556 20.6209 139.578 19.7643 139.845 18.0669C139.965 17.3243 139.85 16.7408 139.502 16.332C139.12 15.8835 138.442 15.646 137.543 15.646ZM137.853 18.1627C137.706 19.127 136.969 19.127 136.257 19.127H135.851L136.136 17.3261C136.153 17.2174 136.247 17.1372 136.357 17.1372H136.543C137.028 17.1372 137.486 17.1372 137.723 17.4138C137.864 17.5789 137.907 17.824 137.853 18.1627ZM145.577 18.1318H144.29C144.18 18.1318 144.085 18.212 144.068 18.3209L144.011 18.6808L143.921 18.5504C143.643 18.146 143.022 18.0109 142.401 18.0109C140.979 18.0109 139.765 19.0879 139.528 20.5988C139.405 21.3523 139.58 22.0729 140.007 22.5755C140.4 23.0375 140.961 23.2301 141.628 23.2301C142.774 23.2301 143.41 22.4933 143.41 22.4933L143.352 22.8509C143.331 22.9877 143.436 23.1102 143.573 23.1102H144.732C144.917 23.1102 145.072 22.9766 145.101 22.7948L145.797 18.3904C145.819 18.2549 145.714 18.1318 145.577 18.1318ZM143.783 20.6364C143.658 21.3715 143.075 21.865 142.331 21.865C141.957 21.865 141.658 21.7452 141.467 21.5181C141.276 21.2926 141.204 20.9715 141.264 20.614C141.381 19.8851 141.974 19.3756 142.707 19.3756C143.072 19.3756 143.369 19.4968 143.565 19.726C143.761 19.9574 143.839 20.2804 143.783 20.6364ZM151.138 18.1317H152.431C152.612 18.1317 152.718 18.3348 152.615 18.4833L148.313 24.6914C148.244 24.792 148.129 24.8518 148.006 24.8518H146.715C146.533 24.8518 146.427 24.6471 146.532 24.4982L147.871 22.6078L146.447 18.4279C146.398 18.2826 146.505 18.1317 146.659 18.1317H147.93C148.095 18.1317 148.241 18.24 148.289 18.398L149.045 20.9226L150.828 18.2955C150.898 18.1929 151.014 18.1317 151.138 18.1317Z" fill="#253B80"/>
<path fill-rule="evenodd" clip-rule="evenodd" d="M165.16 22.8512L166.263 15.8345C166.28 15.7256 166.374 15.6454 166.484 15.645H167.726C167.863 15.645 167.968 15.7679 167.946 15.9039L166.859 22.7943C166.83 22.9762 166.674 23.1098 166.49 23.1098H165.381C165.244 23.1098 165.138 22.9872 165.16 22.8512ZM156.713 15.6454H154.025C153.842 15.6454 153.685 15.779 153.657 15.9605L152.57 22.8512C152.548 22.9872 152.653 23.1098 152.791 23.1098H154.17C154.298 23.1098 154.408 23.0163 154.428 22.8891L154.736 20.9358C154.764 20.7538 154.921 20.6203 155.105 20.6203H155.955C157.726 20.6203 158.747 19.7637 159.014 18.0663C159.135 17.3237 159.019 16.7402 158.671 16.3314C158.29 15.8829 157.613 15.6454 156.713 15.6454ZM157.023 18.1621C156.877 19.1264 156.14 19.1264 155.427 19.1264H155.022L155.307 17.3255C155.324 17.2168 155.417 17.1366 155.527 17.1366H155.713C156.198 17.1366 156.657 17.1366 156.893 17.4132C157.034 17.5783 157.077 17.8234 157.023 18.1621ZM164.746 18.1312H163.46C163.349 18.1312 163.256 18.2114 163.239 18.3203L163.182 18.6802L163.092 18.5498C162.813 18.1454 162.192 18.0103 161.572 18.0103C160.15 18.0103 158.936 19.0873 158.699 20.5981C158.576 21.3517 158.75 22.0723 159.178 22.5748C159.571 23.0369 160.131 23.2294 160.799 23.2294C161.945 23.2294 162.58 22.4927 162.58 22.4927L162.523 22.8503C162.501 22.9871 162.607 23.1096 162.745 23.1096H163.903C164.087 23.1096 164.243 22.976 164.272 22.7941L164.968 18.3898C164.989 18.2543 164.884 18.1312 164.746 18.1312ZM162.952 20.6358C162.829 21.3709 162.244 21.8644 161.5 21.8644C161.127 21.8644 160.828 21.7446 160.636 21.5175C160.446 21.292 160.374 20.9709 160.434 20.6134C160.551 19.8845 161.143 19.375 161.876 19.375C162.242 19.375 162.539 19.4962 162.735 19.7253C162.931 19.9568 163.009 20.2798 162.952 20.6358Z" fill="#179BD7"/>
</g>
<g filter="url(#filter3_dd_34_744)">
<rect x="185.96" y="5" width="46.6143" height="30.0304" rx="5.37857" fill="white"/>
<rect x="185.848" y="4.88795" width="46.8384" height="30.2545" rx="5.49062" stroke="#D6DCE5" stroke-width="0.224107"/>
<path d="M201.037 16.0817C201.348 15.6927 201.559 15.1704 201.504 14.6367C201.048 14.6594 200.493 14.9371 200.171 15.3264C199.882 15.6597 199.627 16.2039 199.693 16.7152C200.204 16.7595 200.715 16.4598 201.037 16.0817Z" fill="#000008"/>
<path d="M201.498 16.8151C200.756 16.7709 200.125 17.2363 199.77 17.2363C199.416 17.2363 198.873 16.8373 198.286 16.8481C197.522 16.8593 196.813 17.2913 196.425 17.9784C195.628 19.3528 196.215 21.3916 196.99 22.511C197.367 23.0648 197.821 23.6746 198.419 23.6527C198.984 23.6305 199.205 23.2868 199.892 23.2868C200.578 23.2868 200.778 23.6527 201.376 23.6416C201.996 23.6305 202.384 23.0875 202.761 22.5332C203.193 21.9019 203.369 21.2923 203.381 21.2588C203.369 21.2477 202.185 20.7932 202.174 19.4302C202.162 18.2889 203.104 17.746 203.148 17.7123C202.616 16.926 201.786 16.8373 201.498 16.8151Z" fill="#000008"/>
<path d="M207.96 15.2705C209.573 15.2705 210.696 16.3824 210.696 18.0013C210.696 19.6259 209.55 20.7435 207.919 20.7435H206.133V23.5837H204.843V15.2705L207.96 15.2705ZM206.133 19.6604H207.614C208.737 19.6604 209.377 19.0556 209.377 18.007C209.377 16.9586 208.737 16.3594 207.62 16.3594H206.133V19.6604Z" fill="#000008"/>
<path d="M211.033 21.8612C211.033 20.8011 211.846 20.1501 213.286 20.0695L214.945 19.9716V19.505C214.945 18.8309 214.49 18.4276 213.73 18.4276C213.009 18.4276 212.56 18.7732 212.45 19.3148H211.275C211.344 18.2201 212.278 17.4136 213.776 17.4136C215.245 17.4136 216.184 18.1914 216.184 19.4069V23.5837H214.991V22.5871H214.962C214.611 23.2611 213.845 23.6874 213.05 23.6874C211.863 23.6874 211.033 22.95 211.033 21.8612ZM214.945 21.3139V20.8358L213.453 20.9279C212.71 20.9798 212.289 21.3081 212.289 21.8266C212.289 22.3566 212.727 22.7023 213.395 22.7023C214.265 22.7023 214.945 22.1031 214.945 21.3139Z" fill="#000008"/>
<path d="M217.309 25.8133V24.8051C217.401 24.8281 217.609 24.8281 217.713 24.8281C218.289 24.8281 218.6 24.5861 218.79 23.964C218.79 23.9524 218.899 23.5953 218.899 23.5895L216.71 17.5231H218.058L219.591 22.4546H219.614L221.146 17.5231H222.46L220.19 23.9005C219.671 25.3697 219.072 25.8421 217.816 25.8421C217.713 25.8421 217.401 25.8305 217.309 25.8133Z" fill="#000008"/>
</g>
<g filter="url(#filter4_dd_34_744)">
<rect x="244.574" y="5" width="46.6143" height="30.0304" rx="5.37857" fill="white"/>
<rect x="244.462" y="4.88795" width="46.8384" height="30.2545" rx="5.49062" stroke="#D6DCE5" stroke-width="0.224107"/>
<path d="M266.868 23.6143H265.82V15.4561H268.599C269.304 15.4561 269.904 15.6909 270.396 16.1605C270.898 16.6301 271.149 17.2035 271.149 17.8806C271.149 18.5741 270.898 19.1475 270.396 19.6116C269.91 20.0758 269.309 20.3051 268.599 20.3051H266.868V23.6143ZM266.868 16.4608V19.3058H268.621C269.036 19.3058 269.386 19.1639 269.659 18.8854C269.937 18.6069 270.079 18.2683 270.079 17.8861C270.079 17.5093 269.937 17.1762 269.659 16.8977C269.386 16.6083 269.042 16.4663 268.621 16.4663H266.868V16.4608Z" fill="#3C4043"/>
<path d="M273.891 17.8478C274.666 17.8478 275.278 18.0553 275.725 18.4703C276.173 18.8854 276.397 19.4533 276.397 20.1741V23.6143H275.398V22.8389H275.354C274.923 23.4778 274.344 23.7945 273.623 23.7945C273.006 23.7945 272.493 23.6143 272.078 23.2484C271.663 22.8826 271.455 22.4293 271.455 21.8833C271.455 21.3044 271.674 20.8457 272.11 20.5072C272.547 20.1632 273.132 19.9939 273.858 19.9939C274.48 19.9939 274.994 20.1085 275.392 20.3379V20.0976C275.392 19.7318 275.25 19.426 274.961 19.1693C274.671 18.9127 274.333 18.7871 273.945 18.7871C273.361 18.7871 272.897 19.0328 272.558 19.5297L271.635 18.9509C272.143 18.2137 272.897 17.8478 273.891 17.8478ZM272.536 21.8996C272.536 22.1727 272.651 22.402 272.886 22.5822C273.115 22.7624 273.388 22.8553 273.699 22.8553C274.142 22.8553 274.535 22.6914 274.879 22.3638C275.223 22.0362 275.398 21.6539 275.398 21.2116C275.07 20.955 274.617 20.8239 274.033 20.8239C273.607 20.8239 273.252 20.9276 272.968 21.1297C272.678 21.3427 272.536 21.5993 272.536 21.8996Z" fill="#3C4043"/>
<path d="M282.098 18.0281L278.603 26.0662H277.522L278.822 23.2539L276.517 18.0281H277.659L279.319 22.0362H279.34L280.957 18.0281H282.098Z" fill="#3C4043"/>
<path d="M262.698 19.6444C262.698 19.3026 262.667 18.9755 262.611 18.6609H258.216V20.4629L260.747 20.4635C260.644 21.0631 260.314 21.5742 259.808 21.9149V23.0841H261.314C262.194 22.2699 262.698 21.0664 262.698 19.6444Z" fill="#4285F4"/>
<path d="M259.808 21.915C259.389 22.1979 258.849 22.3633 258.217 22.3633C256.996 22.3633 255.961 21.5409 255.59 20.4324H254.036V21.6381C254.806 23.166 256.389 24.2145 258.217 24.2145C259.481 24.2145 260.542 23.7989 261.315 23.0836L259.808 21.915Z" fill="#34A853"/>
<path d="M255.444 19.5379C255.444 19.2266 255.496 18.9258 255.59 18.6429V17.4372H254.036C253.718 18.069 253.539 18.7821 253.539 19.5379C253.539 20.2937 253.718 21.0068 254.036 21.6386L255.59 20.4329C255.496 20.15 255.444 19.8492 255.444 19.5379Z" fill="#FABB05"/>
<path d="M258.217 16.712C258.907 16.712 259.524 16.9495 260.012 17.4137L261.347 16.0797C260.536 15.3245 259.479 14.8608 258.217 14.8608C256.389 14.8608 254.806 15.9093 254.036 17.4372L255.59 18.6429C255.961 17.5344 256.996 16.712 258.217 16.712Z" fill="#E94235"/>
</g>
<defs>
<filter id="filter0_dd_34_744" x="0.928918" y="0.293736" width="64.9911" height="48.4071" filterUnits="userSpaceOnUse" color-interpolation-filters="sRGB">
<feFlood flood-opacity="0" result="BackgroundImageFix"/>
<feColorMatrix in="SourceAlpha" type="matrix" values="0 0 0 0 0 0 0 0 0 0 0 0 0 0 0 0 0 0 127 0" result="hardAlpha"/>
<feOffset dy="0.448214"/>
<feGaussianBlur stdDeviation="2.24107"/>
<feColorMatrix type="matrix" values="0 0 0 0 0.717647 0 0 0 0 0.717647 0 0 0 0 0.717647 0 0 0 0.08 0"/>
<feBlend mode="normal" in2="BackgroundImageFix" result="effect1_dropShadow_34_744"/>
<feColorMatrix in="SourceAlpha" type="matrix" values="0 0 0 0 0 0 0 0 0 0 0 0 0 0 0 0 0 0 127 0" result="hardAlpha"/>
<feOffset dy="4.48214"/>
<feGaussianBlur stdDeviation="4.48214"/>
<feColorMatrix type="matrix" values="0 0 0 0 0.717647 0 0 0 0 0.717647 0 0 0 0 0.717647 0 0 0 0.08 0"/>
<feBlend mode="normal" in2="effect1_dropShadow_34_744" result="effect2_dropShadow_34_744"/>
<feBlend mode="normal" in="SourceGraphic" in2="effect2_dropShadow_34_744" result="shape"/>
</filter>
<filter id="filter1_dd_34_744" x="59.5432" y="0.293736" width="64.9911" height="48.4071" filterUnits="userSpaceOnUse" color-interpolation-filters="sRGB">
<feFlood flood-opacity="0" result="BackgroundImageFix"/>
<feColorMatrix in="SourceAlpha" type="matrix" values="0 0 0 0 0 0 0 0 0 0 0 0 0 0 0 0 0 0 127 0" result="hardAlpha"/>
<feOffset dy="0.448214"/>
<feGaussianBlur stdDeviation="2.24107"/>
<feColorMatrix type="matrix" values="0 0 0 0 0.717647 0 0 0 0 0.717647 0 0 0 0 0.717647 0 0 0 0.08 0"/>
<feBlend mode="normal" in2="BackgroundImageFix" result="effect1_dropShadow_34_744"/>
<feColorMatrix in="SourceAlpha" type="matrix" values="0 0 0 0 0 0 0 0 0 0 0 0 0 0 0 0 0 0 127 0" result="hardAlpha"/>
<feOffset dy="4.48214"/>
<feGaussianBlur stdDeviation="4.48214"/>
<feColorMatrix type="matrix" values="0 0 0 0 0.717647 0 0 0 0 0.717647 0 0 0 0 0.717647 0 0 0 0.08 0"/>
<feBlend mode="normal" in2="effect1_dropShadow_34_744" result="effect2_dropShadow_34_744"/>
<feBlend mode="normal" in="SourceGraphic" in2="effect2_dropShadow_34_744" result="shape"/>
</filter>
<filter id="filter2_dd_34_744" x="118.157" y="0.293736" width="64.9911" height="48.4071" filterUnits="userSpaceOnUse" color-interpolation-filters="sRGB">
<feFlood flood-opacity="0" result="BackgroundImageFix"/>
<feColorMatrix in="SourceAlpha" type="matrix" values="0 0 0 0 0 0 0 0 0 0 0 0 0 0 0 0 0 0 127 0" result="hardAlpha"/>
<feOffset dy="0.448214"/>
<feGaussianBlur stdDeviation="2.24107"/>
<feColorMatrix type="matrix" values="0 0 0 0 0.717647 0 0 0 0 0.717647 0 0 0 0 0.717647 0 0 0 0.08 0"/>
<feBlend mode="normal" in2="BackgroundImageFix" result="effect1_dropShadow_34_744"/>
<feColorMatrix in="SourceAlpha" type="matrix" values="0 0 0 0 0 0 0 0 0 0 0 0 0 0 0 0 0 0 127 0" result="hardAlpha"/>
<feOffset dy="4.48214"/>
<feGaussianBlur stdDeviation="4.48214"/>
<feColorMatrix type="matrix" values="0 0 0 0 0.717647 0 0 0 0 0.717647 0 0 0 0 0.717647 0 0 0 0.08 0"/>
<feBlend mode="normal" in2="effect1_dropShadow_34_744" result="effect2_dropShadow_34_744"/>
<feBlend mode="normal" in="SourceGraphic" in2="effect2_dropShadow_34_744" result="shape"/>
</filter>
<filter id="filter3_dd_34_744" x="176.772" y="0.293736" width="64.9911" height="48.4071" filterUnits="userSpaceOnUse" color-interpolation-filters="sRGB">
<feFlood flood-opacity="0" result="BackgroundImageFix"/>
<feColorMatrix in="SourceAlpha" type="matrix" values="0 0 0 0 0 0 0 0 0 0 0 0 0 0 0 0 0 0 127 0" result="hardAlpha"/>
<feOffset dy="0.448214"/>
<feGaussianBlur stdDeviation="2.24107"/>
<feColorMatrix type="matrix" values="0 0 0 0 0.717647 0 0 0 0 0.717647 0 0 0 0 0.717647 0 0 0 0.08 0"/>
<feBlend mode="normal" in2="BackgroundImageFix" result="effect1_dropShadow_34_744"/>
<feColorMatrix in="SourceAlpha" type="matrix" values="0 0 0 0 0 0 0 0 0 0 0 0 0 0 0 0 0 0 127 0" result="hardAlpha"/>
<feOffset dy="4.48214"/>
<feGaussianBlur stdDeviation="4.48214"/>
<feColorMatrix type="matrix" values="0 0 0 0 0.717647 0 0 0 0 0.717647 0 0 0 0 0.717647 0 0 0 0.08 0"/>
<feBlend mode="normal" in2="effect1_dropShadow_34_744" result="effect2_dropShadow_34_744"/>
<feBlend mode="normal" in="SourceGraphic" in2="effect2_dropShadow_34_744" result="shape"/>
</filter>
<filter id="filter4_dd_34_744" x="235.386" y="0.293736" width="64.9911" height="48.4071" filterUnits="userSpaceOnUse" color-interpolation-filters="sRGB">
<feFlood flood-opacity="0" result="BackgroundImageFix"/>
<feColorMatrix in="SourceAlpha" type="matrix" values="0 0 0 0 0 0 0 0 0 0 0 0 0 0 0 0 0 0 127 0" result="hardAlpha"/>
<feOffset dy="0.448214"/>
<feGaussianBlur stdDeviation="2.24107"/>
<feColorMatrix type="matrix" values="0 0 0 0 0.717647 0 0 0 0 0.717647 0 0 0 0 0.717647 0 0 0 0.08 0"/>
<feBlend mode="normal" in2="BackgroundImageFix" result="effect1_dropShadow_34_744"/>
<feColorMatrix in="SourceAlpha" type="matrix" values="0 0 0 0 0 0 0 0 0 0 0 0 0 0 0 0 0 0 127 0" result="hardAlpha"/>
<feOffset dy="4.48214"/>
<feGaussianBlur stdDeviation="4.48214"/>
<feColorMatrix type="matrix" values="0 0 0 0 0.717647 0 0 0 0 0.717647 0 0 0 0 0.717647 0 0 0 0.08 0"/>
<feBlend mode="normal" in2="effect1_dropShadow_34_744" result="effect2_dropShadow_34_744"/>
<feBlend mode="normal" in="SourceGraphic" in2="effect2_dropShadow_34_744" result="shape"/>
</filter>
</defs>
</svg>
